HIERARCHY
ROOT Hips
{
	OFFSET -3.958830 18.904000 13.208200
	CHANNELS 6 Xposition Yposition Zposition Zrotation Yrotation Xrotation 
	JOINT LHipJoint
	{
		OFFSET 0.000000 0.000000 0.000000
		CHANNELS 3 Zrotation Yrotation Xrotation
		JOINT LeftUpLeg
		{
			OFFSET 1.800000 -1.400000 0.085000
			CHANNELS 3 Zrotation Yrotation Xrotation
			JOINT LeftLeg
			{
				OFFSET 2.215000 -6.000000 0.000000
				CHANNELS 3 Zrotation Yrotation Xrotation
				JOINT LeftFoot
				{
					OFFSET 2.500000 -6.900000 0.000000
					CHANNELS 3 Zrotation Yrotation Xrotation
					JOINT LeftToeBase
					{
						OFFSET 0.200000 -0.500000 1.950000
						CHANNELS 3 Zrotation Yrotation Xrotation
						End Site
						{
							OFFSET 0.000000 0.000000 0.000000
						}
					}
				}
			}
		}
	}
	JOINT RHipJoint
	{
		OFFSET 0.000000 0.000000 0.000000
		CHANNELS 3 Zrotation Yrotation Xrotation
		JOINT RightUpLeg
		{
			OFFSET -1.800000 -1.400000 0.085000
			CHANNELS 3 Zrotation Yrotation Xrotation
			JOINT RightLeg
			{
				OFFSET -2.215000 -6.000000 0.000000
				CHANNELS 3 Zrotation Yrotation Xrotation
				JOINT RightFoot
				{
					OFFSET -2.500000 -6.900000 0.000000
					CHANNELS 3 Zrotation Yrotation Xrotation
					JOINT RightToeBase
					{
						OFFSET -0.200000 -0.500000 1.950000
						CHANNELS 3 Zrotation Yrotation Xrotation
						End Site
						{
							OFFSET 0.000000 0.000000 0.000000
						}
					}
				}
			}
		}
	}
	JOINT LowerBack
	{
		OFFSET 0.000000 0.000000 0.000000
		CHANNELS 3 Zrotation Yrotation Xrotation
		JOINT Spine
		{
			OFFSET -0.087000 1.940000 -0.288900
			CHANNELS 3 Zrotation Yrotation Xrotation
			JOINT Spine1
			{
				OFFSET 0.000000 1.950000 0.060000
				CHANNELS 3 Zrotation Yrotation Xrotation
				JOINT Neck
				{
					OFFSET 0.000000 0.000000 0.000000
					CHANNELS 3 Zrotation Yrotation Xrotation
					JOINT Neck1
					{
						OFFSET 0.000000 1.600000 0.340000
						CHANNELS 3 Zrotation Yrotation Xrotation
						JOINT Head
						{
							OFFSET 0.000000 1.667000 -0.240000
							CHANNELS 3 Zrotation Yrotation Xrotation
							End Site
							{
								OFFSET 0.000000 0.000000 0.000000
							}
						}
					}
				}
				JOINT LeftShoulder
				{
					OFFSET 0.000000 0.000000 0.000000
					CHANNELS 3 Zrotation Yrotation Xrotation
					JOINT LeftArm
					{
						OFFSET 2.700000 1.550000 -0.730000
						CHANNELS 3 Zrotation Yrotation Xrotation
						JOINT LeftForeArm
						{
							OFFSET 5.450000 0.000000 0.000000
							CHANNELS 3 Zrotation Yrotation Xrotation
							JOINT LeftHand
							{
								OFFSET 3.450000 0.000000 0.000000
								CHANNELS 3 Zrotation Yrotation Xrotation
								JOINT LeftHandIndex1
								{
									OFFSET 0.750000 0.000000 0.000000
									CHANNELS 3 Zrotation Yrotation Xrotation
									End Site
									{
										OFFSET 0.000000 0.000000 0.000000
									}
								}
							}
						}
					}
				}
				JOINT RightShoulder
				{
					OFFSET 0.000000 0.000000 0.000000
					CHANNELS 3 Zrotation Yrotation Xrotation
					JOINT RightArm
					{
						OFFSET -2.700000 1.550000 -0.730000
						CHANNELS 3 Zrotation Yrotation Xrotation
						JOINT RightForeArm
						{
							OFFSET -5.450000 0.000000 0.000000
							CHANNELS 3 Zrotation Yrotation Xrotation
							JOINT RightHand
							{
								OFFSET -3.450000 0.000000 0.000000
								CHANNELS 3 Zrotation Yrotation Xrotation
								JOINT RightHandIndex1
								{
									OFFSET -0.750000 0.000000 0.000000
									CHANNELS 3 Zrotation Yrotation Xrotation
									End Site
									{
										OFFSET 0.000000 0.000000 0.000000
									}
								}
							}
						}
					}
				}
			}
		}
	}
}
MOTION
Frames: 7
Frame Time: 0.016667
-0.232150 16.973560 -1.625280 -9.626081 -1.728076 4.650013 -15.365829 13.351952 2.177378 4.196850 -2.602374 -14.272956 -0.377029 5.405645 23.356566 -0.351062 4.307576 2.952378 0.191530 0.149410 0.179810 18.321414 -8.201259 5.612176 3.856143 11.900195 -56.882898 8.563816 -1.485880 3.178818 0.246357 -0.443435 4.053914 0.168330 0.060610 0.119760 -3.350636 -4.037248 -8.513023 8.446701 -2.927244 33.453310 6.209618 -1.795309 10.728813 -3.282159 -1.194723 -11.375510 -5.367400 3.620307 34.555788 -1.657430 5.250520 -12.682900 11.351124 -10.739286 0.603139 18.324122 -12.953031 -2.067524 4.338768 -39.856752 1.349426 -3.549830 3.441881 0.314820 0.048920 0.101860 0.016610 -4.918900 10.796780 9.559038 22.423501 -3.207462 -6.278289 49.178174 49.079932 17.198800 2.082899 -1.750679 -0.145630 0.184260 0.057280 -0.140390 
-0.233770 16.998910 -1.615720 -9.686589 -1.109071 4.618694 -15.357805 13.304907 2.170178 4.645604 -2.595509 -14.250261 -1.168792 5.572317 22.606125 -0.347055 4.280169 2.966036 0.171520 0.120250 0.177720 18.346602 -8.087498 5.753463 2.939185 12.373721 -58.619523 9.247868 -2.136420 8.353135 0.220495 -0.663759 3.969319 0.144580 0.055050 0.114050 -3.396776 -4.100104 -8.539012 9.507659 -3.745393 33.757685 5.766904 -2.078281 10.176514 -2.936278 -1.916676 -11.462030 -6.627439 4.089881 34.193569 -2.215000 5.626740 -12.683360 10.051848 -10.317336 0.820911 16.414120 -11.638710 -2.131526 2.903105 -46.033986 1.644915 -3.532053 3.467573 0.322600 0.042020 0.101830 0.008560 -4.239300 10.728730 9.696776 23.093472 -4.789977 -6.851455 50.371775 49.945420 17.974639 2.093385 -1.754023 -0.150160 0.180550 0.062340 -0.145730 
-0.224700 17.051460 -1.560500 -9.069738 0.255629 4.165172 -15.318597 13.197703 2.159998 5.067369 -2.348314 -12.815145 -3.021893 5.917935 20.560598 -0.344731 4.282038 2.989450 0.152170 0.094700 0.167770 18.406716 -8.052019 5.850538 1.243242 12.441995 -60.103421 9.540773 -3.586987 17.402062 0.126700 -1.478078 3.665221 0.137660 0.073310 0.106640 -3.541298 -4.004920 -8.536069 10.968159 -5.194060 33.193256 4.476127 -3.056286 9.885883 -2.656779 -2.492456 -11.211467 -7.658368 4.224359 33.998088 -2.782370 5.689210 -11.968040 8.618227 -8.850306 0.913270 13.003445 -10.370865 -1.937200 -1.458262 -56.251000 3.175941 -3.541753 3.512850 0.309990 0.057240 0.080960 0.006130 -3.314049 9.192701 9.299045 25.280089 -6.091858 -7.385350 54.164046 52.100158 20.426658 2.096480 -1.802710 -0.163890 0.188290 0.071940 -0.146680 
-0.207770 17.120190 -1.490890 -8.889256 2.525213 5.009528 -15.256619 12.996269 2.103746 5.349573 -2.152491 -12.539654 -3.867011 5.745826 17.833156 -0.390323 4.076121 3.086610 0.141420 0.088290 0.143120 18.511246 -8.029085 5.941662 -0.918431 12.378668 -61.837842 10.663717 -5.994539 27.326583 -0.075304 -3.032064 3.100221 0.149850 0.113160 0.106900 -3.793044 -3.778311 -8.513705 13.562981 -7.462110 30.718075 2.813216 -4.770211 9.431938 -2.318611 -2.769517 -10.867024 -7.742273 4.108449 32.478951 -2.887200 5.474970 -11.548250 7.546875 -6.510819 1.335383 6.794607 -9.119556 -1.330258 -12.938809 -67.302689 9.533849 -3.578517 3.603477 0.279310 0.089530 0.047300 0.014430 -2.837622 6.192139 8.322930 28.841626 -6.597587 -7.665720 59.228633 55.466590 24.424388 2.082922 -1.888397 -0.175620 0.200970 0.083620 -0.136530 
-0.187330 17.206090 -1.397040 -8.502383 3.060174 6.581097 -15.237988 12.829008 2.065420 5.023869 -1.858705 -12.307705 -4.518401 5.500282 14.992209 -0.407351 3.868320 3.195293 0.116070 0.060980 0.110860 18.584434 -7.926111 6.006448 -1.169783 13.052822 -62.683672 10.427304 -8.370093 36.570893 -0.322076 -4.685080 2.535313 0.144860 0.153910 0.094280 -3.926182 -3.753891 -8.495022 15.236626 -8.805847 27.790960 1.944934 -5.832616 8.853526 -2.058550 -3.892693 -10.934078 -9.224441 4.708050 29.986030 -3.013300 5.504450 -11.000560 6.612509 -3.364260 2.814155 -1.897420 -6.560291 -0.016553 -44.793312 -74.452301 32.485344 -3.658883 3.688226 0.252150 0.111730 0.009570 0.024620 -2.312716 3.389485 7.228801 33.110779 -7.356999 -8.425833 63.388161 53.950340 25.338374 2.071590 -1.934127 -0.193520 0.215450 0.093410 -0.124550 
-0.155900 17.311090 -1.317230 -8.305156 1.736340 8.290708 -15.219625 12.691073 2.048752 4.242635 -1.403507 -11.468823 -4.672109 5.055299 11.612271 -0.415365 3.629666 3.302179 0.108630 0.048620 0.096750 18.652039 -7.855287 6.006555 0.003284 14.237208 -62.011996 8.529269 -9.550873 43.573809 -0.543383 -5.846109 2.151510 0.134560 0.153840 0.091800 -4.049364 -3.693342 -8.426063 16.924028 -9.729798 25.288402 0.593439 -6.446066 8.332035 -1.599989 -5.478357 -11.008207 -11.547085 5.672792 27.331574 -3.499600 5.609760 -11.700030 5.706490 0.121696 4.246385 -12.466780 -2.703261 0.549252 -78.700649 -70.568666 54.050961 -3.761975 3.579588 0.256060 0.101440 0.004960 0.026440 -2.221546 0.941119 6.165630 38.283637 -7.445118 -9.691607 65.693573 53.354757 25.991630 2.067245 -1.963553 -0.193510 0.213970 0.098470 -0.120060 
-0.110520 17.431930 -1.249140 -7.839094 1.160128 9.488090 -15.256488 12.824891 2.099641 3.390424 -1.037976 -10.851794 -4.257046 4.811833 10.137522 -0.356284 3.510869 3.360562 0.072570 -0.000130 0.078610 18.614078 -7.862491 5.808753 1.226279 14.143240 -59.505109 6.169998 -9.741253 47.414130 -0.664569 -6.403779 1.988211 0.075730 0.136620 0.089270 -3.942180 -4.041753 -8.326161 17.345671 -10.864530 23.671201 0.596045 -7.653975 7.507002 -0.686182 -6.477758 -11.220349 -13.185637 7.475347 25.788429 -4.351370 6.937150 -11.517650 4.020838 2.217239 5.153183 -23.873496 2.065688 -1.651260 -85.794261 -56.415024 46.115765 -3.575731 3.783507 0.270070 0.077710 0.017920 0.026280 -2.133972 -0.570898 5.701387 43.322299 -8.230518 -11.738352 68.348913 55.032055 28.107820 2.100972 -1.984921 -0.182790 0.187050 0.095380 -0.115900 
